<?xml version="1.0" encoding="UTF-8"?>
<svg id="Layer_1" xmlns="http://www.w3.org/2000/svg" version="1.1" viewBox="0 0 1920 626.1">
  <!-- Generator: Adobe Illustrator 29.1.0, SVG Export Plug-In . SVG Version: 2.1.0 Build 142)  -->
  <defs>
    <style>
      .st0 {
        opacity: .2;
        stroke: #fd7400;
      }

      .st0, .st1, .st2, .st3 {
        fill: none;
        stroke-miterlimit: 10;
      }

      .st0, .st3 {
        stroke-width: 9px;
      }

      .st4 {
        fill: gray;
      }

      .st5 {
        fill: #e6e6e6;
      }

      .st1 {
        stroke-width: 2px;
      }

      .st1, .st2 {
        stroke: #511bbf;
      }

      .st1, .st6, .st7, .st8 {
        opacity: .2;
      }

      .st9, .st6 {
        fill: #f77b00;
      }

      .st10 {
        opacity: 0;
      }

      .st11 {
        opacity: 0;
      }

      .st12 {
        opacity: .1;
      }

      .st13 {
        fill: #b3b3b3;
      }

      .st7 {
        fill: #0ecc13;
      }

      .st3 {
        opacity: .3;
        stroke: #9e43ff;
      }

      .st8 {
        fill: #3980ff;
      }
    </style>
  </defs>
  <line class="st1" x1="100.5" y1="138.2" x2="636.7" y2="138.2"/>
  <line class="st1" x1="9.6" y1="153.6" x2="508.6" y2="153.6"/>
  <line class="st1" x1="182.7" y1="168.9" x2="412" y2="168.9"/>
  <line class="st1" x1="54.7" y1="227.4" x2="979.7" y2="227.4"/>
  <circle class="st8" cx="636.7" cy="138.2" r="10"/>
  <circle class="st9" cx="508.6" cy="153.6" r="3.8" transform="translate(40.4 404.7) rotate(-45)"/>
  <circle class="st7" cx="979.7" cy="227.4" r="10.5"/>
  <circle class="st2" cx="412" cy="168.9" r="5.6"/>
  <line class="st1" x1="1720.8" y1="556.4" x2="1184.6" y2="556.4"/>
  <line class="st1" x1="1899.8" y1="102.8" x2="1400.8" y2="102.8"/>
  <line class="st1" x1="1682.6" y1="490.4" x2="1453.3" y2="490.4"/>
  <line class="st1" x1="1810.6" y1="434.4" x2="659.8" y2="434.4"/>
  <circle class="st8" cx="1184.6" cy="556.4" r="10"/>
  <circle class="st9" cx="1400.8" cy="102.8" r="3.8"/>
  <circle class="st6" cx="659.8" cy="434.4" r="13.1"/>
  <circle class="st2" cx="1453.3" cy="490.4" r="5.6"/>
  <polygon class="st1" points="1105.7 60.6 814.3 60.6 668.5 313 814.3 565.5 1105.7 565.5 1251.5 313 1105.7 60.6"/>
  <g class="st11">
    <g>
      <polygon class="st13" points="1820.4 201.6 1803.7 225.9 1780.4 225.9 1797.1 201.6 1820.4 201.6"/>
      <polygon class="st5" points="1820.4 201.6 1837.3 225.9 1820.4 250.2 1803.7 225.9 1820.4 201.6"/>
      <polygon class="st4" points="1803.7 225.9 1820.4 250.2 1797.1 250.2 1780.4 225.9 1803.7 225.9"/>
    </g>
    <g>
      <polygon class="st13" points="1761.7 413.8 1721.2 472.9 1664.3 472.9 1704.9 413.8 1761.7 413.8"/>
      <polygon class="st5" points="1761.7 413.8 1802.9 472.9 1761.7 532.1 1721.2 472.9 1761.7 413.8"/>
      <polygon class="st4" points="1721.2 472.9 1761.7 532.1 1704.9 532.1 1664.3 472.9 1721.2 472.9"/>
    </g>
    <g>
      <polygon class="st13" points="1856.2 354.8 1823.8 401.9 1778.3 401.9 1810.7 354.8 1856.2 354.8"/>
      <polygon class="st5" points="1856.2 354.8 1888.9 401.9 1856.2 449.1 1823.8 401.9 1856.2 354.8"/>
      <polygon class="st4" points="1823.8 401.9 1856.2 449.1 1810.7 449.1 1778.3 401.9 1823.8 401.9"/>
    </g>
    <g>
      <polygon class="st13" points="1854.1 260.3 1829.9 295.7 1795.7 295.7 1820 260.3 1854.1 260.3"/>
      <polygon class="st5" points="1854.1 260.3 1878.8 295.7 1854.1 331.2 1829.9 295.7 1854.1 260.3"/>
      <polygon class="st4" points="1829.9 295.7 1854.1 331.2 1820 331.2 1795.7 295.7 1829.9 295.7"/>
    </g>
  </g>
  <g class="st12">
    <polygon class="st13" points="988.3 242.5 947.7 301.6 890.7 301.6 931.3 242.5 988.3 242.5"/>
    <polygon class="st5" points="988.3 242.5 1029.3 301.6 988.3 360.8 947.7 301.6 988.3 242.5"/>
    <polygon class="st4" points="947.7 301.6 988.3 360.8 931.3 360.8 890.7 301.6 947.7 301.6"/>
  </g>
  <g class="st10">
    <g>
      <polygon class="st13" points="240.2 372.7 264.8 356.7 286.4 365.6 261.7 381.7 240.2 372.7"/>
      <polygon class="st5" points="240.2 372.7 233.8 343.9 258.7 327.9 264.8 356.7 240.2 372.7"/>
      <polygon class="st4" points="264.8 356.7 258.7 327.9 280.3 336.8 286.4 365.6 264.8 356.7"/>
    </g>
    <g>
      <polygon class="st13" points="391.3 445.6 350.7 504.7 293.8 504.7 334.4 445.6 391.3 445.6"/>
      <polygon class="st5" points="391.3 445.6 432.4 504.7 391.3 563.9 350.7 504.7 391.3 445.6"/>
      <polygon class="st4" points="350.7 504.7 391.3 563.9 334.4 563.9 293.8 504.7 350.7 504.7"/>
    </g>
    <g>
      <polygon class="st13" points="132.6 25.9 100.2 73 54.7 73 87.1 25.9 132.6 25.9"/>
      <polygon class="st5" points="132.6 25.9 165.2 73 132.6 120.3 100.2 73 132.6 25.9"/>
      <polygon class="st4" points="100.2 73 132.6 120.3 87.1 120.3 54.7 73 100.2 73"/>
    </g>
    <g>
      <polygon class="st13" points="153.6 246.1 189.5 222.7 221.1 235.8 185 259.2 153.6 246.1"/>
      <polygon class="st5" points="153.6 246.1 144.3 204 180.7 180.6 189.5 222.7 153.6 246.1"/>
      <polygon class="st4" points="189.5 222.7 180.7 180.6 212.2 193.7 221.1 235.8 189.5 222.7"/>
    </g>
  </g>
  <polygon class="st0" points="406.6 429.5 319.7 429.5 276.2 504.8 319.7 580 406.6 580 450.1 504.8 406.6 429.5"/>
  <polygon class="st3" points="1023.9 192.4 896.1 192.4 832.2 303.1 896.1 413.8 1023.9 413.8 1087.8 303.1 1023.9 192.4"/>
</svg>