<svg xmlns="http://www.w3.org/2000/svg" version="1.1" xmlns:xlink="http://www.w3.org/1999/xlink" xmlns:svgjs="http://svgjs.dev/svgjs" width="1000" height="1000"><g clip-path="url(#SvgjsClipPath1047)"><rect width="1000" height="1000" fill="#501cbe"></rect><g transform="matrix(0.9114583333333334,0,0,0.9114583333333334,150,150)"><svg xmlns="http://www.w3.org/2000/svg" version="1.1" xmlns:xlink="http://www.w3.org/1999/xlink" xmlns:svgjs="http://svgjs.dev/svgjs" width="768" height="768"><svg id="Layer_1" xmlns="http://www.w3.org/2000/svg" version="1.1" viewBox="0 0 768 768">
  <!-- Generator: Adobe Illustrator 29.1.0, SVG Export Plug-In . SVG Version: 2.1.0 Build 142)  -->
  <defs>
    <style>
      .st0 {
        fill: #fbff12;
      }

      .st1 {
        fill: #7678ed;
      }
    </style>
  <clipPath id="SvgjsClipPath1047"><rect width="1000" height="1000" x="0" y="0" rx="350" ry="350"></rect></clipPath></defs>
  <path class="st0" d="M463.8,165.1c-5.4,4.2-10.5,9.3-15.4,15.4-32.9,42-19,102.2-19.2,151.2l.6,1.3c3.1,2.8,40.9.5,47.3,0,40.7-3.7,93.5-12.6,116-51.1l-129.3-116.8Z"></path>
  <path class="st0" d="M179.6,500.9c-.2,2.5-.4,5-.4,7.7-.4,61.4,57.8,100.8,109.5,90.8l-109.1-98.5Z"></path>
  <path class="st1" d="M641,145.3l-15.3-18.4-18.7-16.9-23.2-15.5c-48.4-28.4-105.3-27.8-152.1,3.7l-21.5,16.9-14.3,15.8-13.1,20.9c-31.9,61-23.3,132.9-19.7,198.6l4,51.4c4.6,33.4,8.4,67.7,5.9,101.5-1.8,25.6-8,56.1-24.1,76.8-61.4,79-188.8,28.7-188.2-69.8,0-2.6.1-5.2.3-7.7,1.2-14.6-9.1-27.6-23.5-30.2h0c-17.2-3.1-33,9.6-33.8,27-2.1,43.9,14.9,89.9,44.5,120.8,4.6,4.8,10.5,9,15.3,13.8,3.9,1.9,7.3,5.2,10.9,7.7,52.3,35.6,123.2,41.9,177.5,7.3l21.6-16.5,14.8-16.4,11.3-17.6c32.3-59.7,28.4-131.5,23.1-197.3l-5.8-56.2c0-1.2,0-2.3,0-3.5h0s-15.3-125.8,22.6-174.2c75.1-95.8,220.8,21.8,172.2,115.4-25.2,48.4-89.3,59.3-138.5,63.8-1.1,0-3.8.3-7.3.4-14.7.7-26,13.3-25.3,27.9h0c.8,15.5,14,27.4,29.5,26.8,48.3-2,95.3-11.4,136.7-39.1,82.5-55,91-140.2,34.3-217.4Z"></path>
</svg></svg></g></g></svg>