<?xml version="1.0" encoding="UTF-8"?>
<svg id="Layer_1" xmlns="http://www.w3.org/2000/svg" version="1.1" viewBox="0 0 1920 626.1">
  <!-- Generator: Adobe Illustrator 29.4.0, SVG Export Plug-In . SVG Version: 2.1.0 Build 152)  -->
  <defs>
    <style>
      .st0 {
        fill: #511bbf;
      }
    </style>
  </defs>
  <path class="st0" d="M-1.1,202.1c86,7.6,157.7,68.6,220.7,122.6,69.4,59.5,134.5,125,209.4,177.7,55.6,39.1,117.4,70,187,58.1,64.6-11,121.3-49.1,171-89.9,106.5-87.4,193.6-205,316.6-270.9,51.5-27.6,110.5-42.3,168.3-27.8,70.7,17.7,131.7,66.7,185.6,113.5,74.1,64.3,141.5,136,214.6,201.4,68.7,61.4,148.3,127.9,243.9,135.4,0-1.9,0-3.4,0-7.2-94.4-7.5-174.5-68.5-245.3-126.6-72.7-59.6-140.6-125.1-215.2-182.4-53.7-41.3-113.7-82.3-181.1-96.4-60-12.5-120.6,2.1-174.7,28.9-118.1,58.5-208.2,160.2-315.9,234.2-52.1,35.8-109.9,66.8-173.5,75-65.6,8.5-125.6-15.5-181.5-47.9-73.6-42.7-139.7-97.1-209.4-145.7-65.9-45.9-138.1-92.9-220.6-97.5,0-18.2,0-36.4,0-54.6h0Z"/>
  <path class="st0" d="M1920,624.2c-96.1-5.8-175.4-75.8-242.4-138.6-75.3-70.6-143.7-148.1-219.6-218-51.9-47.8-110.5-98.6-179.3-119.4-59.3-17.9-119.4-3.6-172.2,26.1-126.1,71-211.7,198.1-318.5,292.6-47.2,41.8-101.3,82-164.1,95.7-72.1,15.7-135.3-16.9-192-59-72.9-54.2-135.7-120.9-202.2-182.5C166.2,262.2,92.8,192.4,2.9,181.8c0-6.5,0-9.7,0-16.1,91.1,8.8,164.9,82,227.5,142.6,67,64.8,129.6,135.2,202.9,193.2,55.9,44.2,119.6,80.5,192.7,62.2,64.4-16.1,117.9-62,163.6-108,108-108.8,188.8-251.5,316.5-339.6,50.5-34.8,110.7-56.2,171.7-38.5,70.4,20.5,128.9,76.3,179.4,126.8,77,77.1,145.1,162.5,220.5,241.1,64.1,66.8,143.7,149,242.4,152.6v26h0Z"/>
  <path class="st0" d="M-3,313.7c154.5,6,286.4,117.1,425,173.6,58.4,23.8,118.8,39,182.2,32.2,62.1-6.7,121.1-28.8,177-55.9,107-51.9,205.2-123.7,319-161.1,55.4-18.2,114.3-27.3,172.5-19.9,64.7,8.3,125.8,35.4,183.1,65.4,144.7,75.7,288.1,196.8,458.2,201.9,0-4.9,0-7.4,0-11.9-166.4-6.1-309.8-113.2-457.7-177.7-58.1-25.4-119.4-46.7-183-51.8-58.3-4.7-116.8,4.3-172.8,20.2-111.5,31.7-213,89.8-321.3,130.1-57.5,21.4-116.9,37.7-178.2,42.8-61.8,5.2-122.1-5.1-181.5-21.9-139.3-39.3-274.8-112.5-422.6-111.4v-54.6h0Z"/>
  <path class="st0" d="M1918,566c-89.9-2.5-171.1-43.8-246.6-89.5-72.7-44-141.6-94-215.1-136.8-54.7-31.9-113.6-61.7-176.6-72.4-59.6-10.1-120.1-.8-176.5,19.4-116.1,41.7-213.2,121.8-321.1,179.7-53.1,28.5-109.8,52.3-170,60.2-65.8,8.6-127.6-8.2-187.3-35.4-70.5-32.1-135.8-74.3-203.1-112.4C153.2,340,80.8,302,.9,297c0-9.4,0-14.1,0-23.5,81.3,4.7,153.4,47.8,220.3,91,69.4,44.8,135.8,95.2,208.9,134,56.6,30.1,116.4,50.9,181.2,42.6,62.9-8.1,120.9-37,173.7-70.7,107.5-68.7,199.7-163.9,317-216.9,54.8-24.7,115.2-37.7,174.9-25.7,66.7,13.4,126.7,51.6,181.1,90.8,74.2,53.5,142.3,114.9,214.9,170.4,71.8,55,152.2,110.8,245.2,116.7,0-13.2,0-26.5,0-39.7h0Z"/>
  <path class="st0" d="M-3,425.3c139.9-.2,277.1,33.1,415.5,49,121.8,14,241.2,6.5,362.1-12.6,109.2-17.3,217.5-40.5,327.7-51.7,119.5-12.1,235.8-6.9,353.4,17.8,152.1,32,301.5,80.7,458.5,81.4,0,2.3,0,4.2,0,9.7-154.2.2-305.3-32.8-457.9-50.2-226.4-25.9-456.7,1.1-683.7,7.4-258.4,7.3-517,1.2-775.5,3.6v-54.6h0Z"/>
  <path class="st0" d="M1918,506.8c-158.8.6-307.3-58.8-458.8-98.2-117.4-30.5-232.9-39.1-353.2-22.2-110.6,15.5-217.7,47.7-326.6,71.5-120.7,26.4-239.3,36.8-361.8,17.3C278.7,453.1,142.4,407.3.8,406c0-7.4,0-11.2,0-18.6,144.2-.6,279.6,58.2,418.2,89.9,60.1,13.8,120.7,21.7,182.4,16.8,61.3-4.8,121.3-19,179.7-37.6,109-34.7,213-84.7,324.6-111.4,56.8-13.6,115.7-20.9,174.1-16.7,61.5,4.5,121.1,22.3,178.5,43.9,149.8,56.4,295.3,149.9,459.7,152.3,0-12.8,0-17.8,0-17.8h0Z"/>
</svg>