<?xml version="1.0" encoding="UTF-8"?>
<svg id="Layer_1" xmlns="http://www.w3.org/2000/svg" xmlns:xlink="http://www.w3.org/1999/xlink" version="1.1" viewBox="0 0 1920 626.1">
  <!-- Generator: Adobe Illustrator 29.1.0, SVG Export Plug-In . SVG Version: 2.1.0 Build 142)  -->
  <defs>
    <style>
      .st0 {
        fill: #fbff12;
      }

      .st1 {
        fill: #511bbf;
      }

      .st2, .st3, .st4, .st5, .st6, .st7, .st8 {
        fill: none;
        stroke-miterlimit: 10;
      }

      .st2, .st3, .st4, .st8 {
        stroke: #511bbf;
      }

      .st3 {
        stroke-width: 4px;
      }

      .st4 {
        stroke-width: 5px;
      }

      .st5 {
        stroke-dasharray: 13.1 13.1;
      }

      .st5, .st7 {
        stroke: #fbff12;
      }

      .st5, .st7, .st8 {
        stroke-width: 2px;
      }

      .st6 {
        stroke: url(#linear-gradient);
      }
    </style>
    <linearGradient id="linear-gradient" x1="97" y1="328.3" x2="1643.4" y2="328.3" gradientTransform="translate(0 628) scale(1 -1)" gradientUnits="userSpaceOnUse">
      <stop offset="0" stop-color="#511bbf"/>
      <stop offset="1" stop-color="#fbff12"/>
    </linearGradient>
  </defs>
  <g>
    <path class="st0" d="M1543.3,167.9h-12v2h12v-2h0ZM1519.3,167.9h-12v2h12v-2h0ZM1495.3,167.9h-5.3l-3.1,5.4,1.7,1,2.7-4.8h4.2v-2h0l-.2.4ZM1480.6,184.1l-4.1,7.2h0c-.9,1.7-1.6,2.9-1.6,2.9l1.7,1,6-10.4-1.7-1h0l-.3.3ZM1468.6,204.9l-5.2,9h0c-.3.6-.5.9-.5.9l1.7,1,6-10.4-1.7-1h0l-.3.5ZM1456.6,225.6l-5.3,9.3h0l.7,1.1.7-.4.4.2.4-.7h.2v-.3l4.8-8.3-1.7-1h-.2ZM1459.6,245.4l-1.7,1,6,10.4,1.7-1-6-10.4h0ZM1471.6,266.2l-1.7,1,6,10.4,1.7-1-6-10.4h0ZM1483.6,287l-1.7,1,6,10.4,1.7-1-6-10.4h0ZM1509.9,299.9h-12v2h12v-2h0ZM1533.9,299.9h-12v2h12v-2h0ZM1557.9,299.9h-12v2h12v-2h0ZM1572.8,288.3l-6,10.4,1.7,1,6-10.4-1.7-1h0ZM1584.8,267.5l-6,10.4,1.7,1h0v-.2h0v-.2h0l5.3-9.2-1.7-1h0l.7-.8ZM1596.8,246.7l-6,10.4,1.7,1,6-10.4-1.7-1h0ZM1601.3,226.9l-1.7,1,4,7-.8,1.4,1.7,1,1.4-2.4h0l-4.6-8h0ZM1589.3,206.1l-1.7,1,6,10.4,1.7-1s-5.3-9.1-5.9-10.3h0ZM1577.3,185.3l-1.7,1,6,10.4,1.7-1-6-10.4h0ZM1567.3,167.9h-12v2h10.8l3.5,6,1.7-1-4-7h0Z"/>
    <g>
      <line class="st7" x1="1451.2" y1="234.9" x2="1457.2" y2="234.9"/>
      <line class="st5" x1="1470.3" y1="234.9" x2="1516.1" y2="234.9"/>
      <line class="st7" x1="1522.6" y1="234.9" x2="1528.6" y2="234.9"/>
    </g>
    <g>
      <line class="st7" x1="1567.2" y1="167.9" x2="1564.2" y2="173.1"/>
      <line class="st5" x1="1557.7" y1="184.4" x2="1534.9" y2="224.1"/>
      <line class="st7" x1="1531.6" y1="229.7" x2="1528.6" y2="234.9"/>
    </g>
    <g>
      <line class="st7" x1="1567.2" y1="301.9" x2="1564.2" y2="296.7"/>
      <line class="st5" x1="1557.7" y1="285.4" x2="1534.9" y2="245.8"/>
      <line class="st7" x1="1531.6" y1="240.1" x2="1528.6" y2="234.9"/>
    </g>
  </g>
  <g>
    <path class="st0" d="M1680.9,102.9l37.5,65-37.5,65h-75l-37.5-65,37.5-65h75M1682.1,100.9h-77.3l-38.7,67,38.7,67h77.3l38.7-67-38.7-67h0Z"/>
    <line class="st7" x1="1566" y1="167.9" x2="1643.4" y2="167.9"/>
    <line class="st7" x1="1682.1" y1="100.9" x2="1643.4" y2="167.9"/>
    <line class="st7" x1="1682.1" y1="234.9" x2="1643.4" y2="167.9"/>
  </g>
  <g>
    <path class="st0" d="M1680.9,234.7l37.5,65-37.5,65h-75l-37.5-65,37.5-65h75M1682.1,232.7h-77.3l-38.7,67,38.7,67h77.3l38.7-67-38.7-67h0Z"/>
    <line class="st7" x1="1566" y1="299.7" x2="1643.4" y2="299.7"/>
    <line class="st7" x1="1682.1" y1="232.7" x2="1643.4" y2="299.7"/>
    <line class="st7" x1="1682.1" y1="366.6" x2="1643.4" y2="299.7"/>
  </g>
  <g>
    <path class="st0" d="M1543.3,299.7h-12v2h12v-2h0ZM1519.3,299.7h-12v2h12v-2h0ZM1495.3,299.7h-5.3l-3.3,5.8,1.7,1,2.7-4.8h4.2v-2h0ZM1480.6,315.8s-1.9,3.3-3.6,6.2h0s0,.2,0,.2h0c0,.1-2,3.5-2,3.5l1.7,1,6-10.4-1.7-1h0l-.3.5ZM1468.6,336.6l-1.8,3.1h0c-1.8,3.1-4.1,7.1-4.1,7.1l1.7,1,6-10.4-1.7-1h0v.2ZM1456.6,357.4l-5.3,9.3h0l.6,1,.7-.4.4.2.4-.7h.2v-.3l4.8-8.3-1.7-1h0v.2ZM1459.6,377.2l-1.7,1s.8,1.5,1.9,3.3h0s0,.2,0,.2h0s0,.2,0,.2h0l3.6,6.3,1.7-1-6-10.4h0l.3.4ZM1471.6,398l-1.7,1,3.5,6h0c1.3,2.2,2.4,4.2,2.4,4.2l1.7-1-6-10.4h0v.2ZM1483.6,418.7l-1.7,1,6,10.4,1.7-1-6-10.4h0ZM1509.9,431.6h-12v2h12v-2h0ZM1533.9,431.6h-12v2h12v-2h0ZM1557.9,431.6h-12v2h12v-2h0ZM1572.8,420l-6,10.4,1.7,1s1.4-2.4,2.9-5h0v-.2h0l2.6-4.4-1.7-1h0l.5-.8ZM1584.8,399.2l-6,10.4,1.7,1,6-10.4-1.7-1h0ZM1596.8,378.4l-6,10.4,1.7,1,6-10.4-1.7-1h0ZM1601.3,358.6l-1.7,1,4,7-.8,1.4,1.7,1,1.1-1.9h0v-.2h0l-4.3-7.5h0v-.8ZM1589.3,337.8l-1.7,1,6,10.4,1.7-1s-4-6.9-5.4-9.4h0s0-.2,0-.2h0v-.2h0l-.4-.6ZM1577.3,317.1l-1.7,1,6,10.4,1.7-1s-2.3-4-4-7h0l-1.9-3.3h0ZM1567.3,299.7h-12v2h10.8l3.5,6,1.7-1-3.9-6.8h0v-.2Z"/>
    <g>
      <line class="st7" x1="1451.2" y1="366.6" x2="1457.2" y2="366.6"/>
      <line class="st5" x1="1470.3" y1="366.6" x2="1516.1" y2="366.6"/>
      <line class="st7" x1="1522.6" y1="366.6" x2="1528.6" y2="366.6"/>
    </g>
    <g>
      <line class="st7" x1="1567.2" y1="299.7" x2="1564.2" y2="304.9"/>
      <line class="st5" x1="1557.7" y1="316.2" x2="1534.9" y2="355.8"/>
      <line class="st7" x1="1531.6" y1="361.5" x2="1528.6" y2="366.6"/>
    </g>
    <g>
      <line class="st7" x1="1567.2" y1="433.6" x2="1564.2" y2="428.4"/>
      <line class="st5" x1="1557.7" y1="417.1" x2="1534.9" y2="377.5"/>
      <line class="st7" x1="1531.6" y1="371.8" x2="1528.6" y2="366.6"/>
    </g>
  </g>
  <g>
    <path class="st0" d="M1680.9,368.6l37.5,65-37.5,65h-75l-37.5-65,37.5-65h75M1682.1,366.6h-77.3l-38.7,67,38.7,67h77.3l38.7-67-38.7-67h0Z"/>
    <line class="st7" x1="1566" y1="433.6" x2="1643.4" y2="433.6"/>
    <line class="st7" x1="1682.1" y1="366.6" x2="1643.4" y2="433.6"/>
    <line class="st7" x1="1682.1" y1="500.6" x2="1643.4" y2="433.6"/>
  </g>
  <g>
    <path class="st0" d="M1795.6,169.9l37.5,65-37.5,65h-75l-37.5-65,37.5-65h75M1796.7,167.9h-77.3l-38.7,67,38.7,67h77.3l38.7-67-38.7-67h0Z"/>
    <line class="st7" x1="1680.7" y1="234.9" x2="1758.1" y2="234.9"/>
    <line class="st7" x1="1796.7" y1="167.9" x2="1758.1" y2="234.9"/>
    <line class="st7" x1="1796.7" y1="301.9" x2="1758.1" y2="234.9"/>
  </g>
  <g>
    <path class="st0" d="M1795.6,301.7l37.5,65-37.5,65h-75l-37.5-65,37.5-65h75M1796.7,299.7h-77.3l-38.7,67,38.7,67h77.3l38.7-67-38.7-67h0Z"/>
    <line class="st7" x1="1680.7" y1="366.6" x2="1758.1" y2="366.6"/>
    <line class="st7" x1="1796.7" y1="299.7" x2="1758.1" y2="366.6"/>
    <line class="st7" x1="1796.7" y1="433.6" x2="1758.1" y2="366.6"/>
  </g>
  <line class="st4" x1="198.4" y1="201.4" x2="1368.8" y2="201.4"/>
  <line class="st8" x1="50.3" y1="234.9" x2="1089.3" y2="234.9"/>
  <line class="st8" x1="377.9" y1="268.4" x2="878.4" y2="268.4"/>
  <line class="st3" x1="209.8" y1="579.8" x2="1360.6" y2="579.8"/>
  <path class="st8" d="M0,492.6s692,123.6,1144.8-201C1536.3,11.1,1920,47.1,1920,47.1"/>
  <path class="st8" d="M97,461.1s599.9,43.8,766.7-127.9S943.8,0,943.8,0"/>
  <circle class="st1" cx="1368.8" cy="201.4" r="21.9"/>
  <circle class="st1" cx="1089.3" cy="234.9" r="8.2"/>
  <circle class="st1" cx="1360.6" cy="579.8" r="13.1"/>
  <line class="st6" x1="1643.4" y1="299.7" x2="97" y2="299.7"/>
  <polygon class="st0" points="1656.2 277.4 1630.5 277.4 1617.7 299.7 1630.5 321.9 1656.2 321.9 1669.1 299.7 1656.2 277.4"/>
  <circle class="st2" cx="878.4" cy="268.4" r="12.3"/>
</svg>