<?xml version="1.0" encoding="UTF-8"?>
<svg id="Layer_1" xmlns="http://www.w3.org/2000/svg" version="1.1" viewBox="0 0 300 300">
  <!-- Generator: Adobe Illustrator 29.5.1, SVG Export Plug-In . SVG Version: 2.1.0 Build 141)  -->
  <defs>
    <style>
      .st0 {
        fill: #ff871a;
      }
    </style>
  </defs>
  <g id="Generative_Object">
    <g>
      <path class="st0" d="M211.3,135.9c-10.2-9.1-22.4-13.9-33.4-20.3V29.2c.4-2.4,1.2-2.6,2.3-4.6,1.8-3.3,7.6-5.4,5.4-12.3-1.8-3.3-3.8-4.8-7.3-6.1-4.8-1-63.1-1-67.5,0-9.5,2.1-8.6,17,1.2,19.2-.4,1.1,2.5,3,3.1,3.1v87.9c-68,23.2-84.5,109.3-28.4,155.4,93.2,76.6,210.4-58.8,124.7-135.9ZM82.3,252.5c-19.4-23.6-34.2-83,8.8-88.7,48.2-6.3,81.2,41.8,127.4,23.8,7.9,35.2-17.2,76.1-52.2,85.2-58.1,15.1-107.9-35.4-93.6-92.9-9.2,8.9-6,31.6-2.7,43.4,23.3,82.4,151.6,72.3,153.5-26.9,0-4.4-3.3-9.8.4-13.4,19.5,82-87.3,135.6-141.6,69.5Z"/>
      <circle class="st0" cx="126" cy="223.5" r="22.5"/>
      <circle class="st0" cx="96.8" cy="187" r="9.7"/>
    </g>
  </g>
</svg>