<?xml version="1.0" encoding="UTF-8"?>
<svg id="Layer_1" xmlns="http://www.w3.org/2000/svg" version="1.1" viewBox="0 0 300 300">
  <!-- Generator: Adobe Illustrator 29.6.1, SVG Export Plug-In . SVG Version: 2.1.1 Build 9)  -->
  <defs>
    <style>
      .st0 {
        fill: #f6ff4a;
      }

      .st1 {
        fill: #ff7676;
      }

      .st2 {
        fill: #444dfc;
      }
    </style>
  </defs>
  <path class="st1" d="M169.1,91.6c0,.4,0,.8,0,1.2-39.6,6.3-71.5,35.7-81.4,74.1-39-3-69.7-35.6-69.7-75.3S51.8,16,93.6,16s75.5,33.8,75.5,75.6Z"/>
  <path class="st0" d="M169.1,92.8c-.7,41.2-34.2,74.3-75.5,74.3s-3.9,0-5.8-.2c9.8-38.3,41.8-67.8,81.4-74.1Z"/>
  <path class="st2" d="M285.2,191.9c0,55.4-44.9,100.3-100.3,100.3s-100.3-44.9-100.3-100.3,1.1-17,3.2-25c1.9.1,3.9.2,5.8.2,41.3,0,74.8-33.2,75.5-74.3,5.2-.8,10.4-1.2,15.8-1.2,55.4,0,100.3,44.9,100.3,100.3Z"/>
</svg>