<?xml version="1.0" encoding="UTF-8"?>
<svg id="Layer_1" xmlns="http://www.w3.org/2000/svg" version="1.1" viewBox="0 0 300 300">
  <!-- Generator: Adobe Illustrator 29.5.1, SVG Export Plug-In . SVG Version: 2.1.0 Build 141)  -->
  <defs>
    <style>
      .st0 {
        fill: #b443ef;
      }
    </style>
  </defs>
  <path class="st0" d="M235.1,232.9c-2.4,0-4.6.4-6.8,1.1l-17.5-21.5c16.3-15.9,26.5-38,26.5-62.6s-10.1-46.7-26.5-62.6l9.7-11.9c2.7,1,5.6,1.6,8.6,1.6,13.2,0,24-10.7,24-24s-10.7-24-24-24-24,10.7-24,24,1.4,9.2,3.8,12.9l-9.7,11.9c-14-9.6-31-15.2-49.2-15.2s-16.9,1.2-24.7,3.6l-8.5-21.7c4.2-3.8,6.8-9.3,6.8-15.4,0-11.5-9.3-20.9-20.9-20.9s-20.9,9.3-20.9,20.9,9.3,20.9,20.9,20.9,0,0,.1,0l8.5,21.7c-7.5,3.7-14.3,8.4-20.4,14l-36.1-33.1c1.1-2.6,1.6-5.3,1.6-8.3,0-12-9.8-21.8-21.8-21.8s-21.8,9.8-21.8,21.8,9.8,21.8,21.8,21.8,7-.9,10-2.4l36.1,33.1c-11.3,14.7-18.1,33.2-18.1,53.2s9.1,44.4,23.9,60.1l-13.3,16.3c-2.7-1-5.6-1.6-8.6-1.6-13.2,0-24,10.7-24,24s10.7,24,24,24,24-10.7,24-24-1.4-9.2-3.8-12.9l12.9-15.8c14.5,10.8,32.6,17.3,52.1,17.3s35.2-5.6,49.2-15.2l17.5,21.4c-1.8,3.1-2.9,6.8-2.9,10.6,0,11.7,9.5,21.3,21.3,21.3s21.3-9.5,21.3-21.3-9.5-21.3-21.3-21.3Z"/>
</svg>