<?xml version="1.0" encoding="UTF-8"?>
<svg id="Layer_1" xmlns="http://www.w3.org/2000/svg" version="1.1" viewBox="0 0 300 300">
  <!-- Generator: Adobe Illustrator 29.5.1, SVG Export Plug-In . SVG Version: 2.1.0 Build 141)  -->
  <defs>
    <style>
      .st0 {
        fill: #29abe2;
      }
    </style>
  </defs>
  <path class="st0" d="M210,5.5c.2-1,.4-2.3.7-3.7h-121.2c.6,3.8,1.4,7.2,1.9,9.2,6.1,21,21.1,38.3,38.7,51.1-34.1,22.3-61.1,50.1-57.9,93,2.7,36.4,29,60,57.9,79.4-19.7,14.3-35.5,33.7-40.3,57.7-.2,1.1-.5,2.7-.7,4.5h97.4s0,0,0,0h24.4c-3.1-25-20.3-47.5-41-62.2,4.6-3.4,9.5-6.4,14-10,29.9-23.3,48.4-49.2,43.3-88-4.5-34-30-56-57.3-74.3,19.2-14,35.1-33.3,40.1-56.7ZM177.1,273.8l-53.8.2c7.2-10.1,16.9-18.4,26.8-25.9,10,7.4,19.2,16,27,25.7ZM150.1,219.7l-27-19.4h54.1s-27,19.4-27,19.4ZM196.8,177.3h-92.9c0,0-1.3-.5-1.3-.5-1.4-1.4-6.6-16.3-5.8-17.1l106.7.5c-.5,3.1-4.2,16.2-6.6,17.1ZM203.4,137h-106.6c-.8-.8,4.4-15.7,5.8-17.1l94.2-.5c2.4,1.3,7.3,16.9,6.6,17.6ZM176.8,96.7l-53.8-.2,27-19.4,26.8,19.7ZM150.1,48.5c-10-7.4-19.2-16-27-25.7h54.1c-7.8,9.6-17,18.3-27,25.7Z"/>
</svg>