<?xml version="1.0" encoding="UTF-8"?>
<svg id="Layer_1" xmlns="http://www.w3.org/2000/svg" version="1.1" viewBox="0 0 300 300">
  <!-- Generator: Adobe Illustrator 29.5.1, SVG Export Plug-In . SVG Version: 2.1.0 Build 141)  -->
  <defs>
    <style>
      .st0 {
        fill: #0071bc;
      }
    </style>
  </defs>
  <polygon class="st0" points="153.9 213.4 158.2 241.1 185.9 245.5 153.9 213.4"/>
  <path class="st0" d="M246.2,208.6l-56.2-55.6c-1.7,0-13.7,5.9-13.7,6.8l63.2,63.2c.8,0,7.3-12.3,6.7-14.5Z"/>
  <polygon class="st0" points="243.9 155.4 216.2 151.1 248 183.1 243.9 155.4"/>
  <path class="st0" d="M211.4,243.4c2,.8,12.1-4.8,14.2-6.4l-63-63.5c-.9,0-6.8,12.1-6.8,13.7l.4,1.1,55.1,55.1Z"/>
  <polygon class="st0" points="146.8 85.2 142.7 57.5 115 53.1 146.8 85.2"/>
  <path class="st0" d="M54.6,89.2l.4,1.1,55.1,55.1c2,.8,12.1-4.8,14.2-6.4l-63-63.5c-.9,0-6.8,12.1-6.8,13.7Z"/>
  <path class="st0" d="M88.8,55c-1.7,0-13.7,5.9-13.7,6.8l63.2,63.2c.8,0,7.3-12.3,6.7-14.5l-56.2-55.6Z"/>
  <polygon class="st0" points="57 143.1 84.7 147.5 52.7 115.4 57 143.1"/>
  <path class="st0" d="M150.5,7.4C71.3,7.4,6.8,71.9,6.8,151.1s64.4,143.7,143.7,143.7,143.7-64.4,143.7-143.7S229.7,7.4,150.5,7.4ZM158.5,23.7c0,5.6.5,11.2,1.3,16.7,10.4,1.5,21,1.8,31.4.6l-15-15c17.9,3.7,34.4,11.1,48.7,21.4-1.4,1-2.7,2-3.7,2.7-17,11.1-38.1,13.3-57.8,10.3,5.2,27.2,7.1,55.5-10.7,78.6-20.3,26.4-46.8,31-78.5,27.2-4.8-.6-9.5-1.7-14.3-2.3,3.4,21.1.1,44.8-13.1,61.7-10.3-14.3-17.8-30.9-21.4-48.8l15.1,15c1.1-10.4.9-21.1-.6-31.4-5.5-.7-11.2-1.3-16.9-1.4-.2-2.6-.2-5.2-.2-7.8,0-4,.2-8,.6-12,4.3.1,8.6.5,12.9,1.2-2.5-13-4.2-26.3-3.4-39,13-30.5,37.5-54.9,68-67.8,12.5-.8,25.6.7,38.8,3.4-.6-4.2-1-8.5-1.1-12.8,3.9-.4,7.8-.6,11.8-.6s5.4,0,8,.3ZM142.4,278.4c.1-6.8-.3-13.6-1.3-20.3-10.3-1.3-21.1-2.1-31.4-.3l19.2,19c-20.5-3.5-39.3-11.9-55.2-23.9,2.1-1.7,4-3.2,5.3-4,17.3-11.5,38.3-13.8,58.5-10.8-5.6-28.8-7-58.6,13.3-82,23.9-27.6,56.5-28.3,90.2-21.5-2.7-18.2-1.2-37.4,7.8-53.7.8-1.4,2.3-3.7,4.1-6.2,10.1,13.6,17.6,29.3,21.7,46.2l-14.2-14.2c-1.1,10.4-.9,21.1.6,31.4,5.5.8,11.1,1.2,16.6,1.3.3,3.8.5,7.6.5,11.4s-.1,5.6-.3,8.4c-4.4-.1-8.9-.5-13.2-1.2,2.7,14.5,4.6,29.3,3,43.5-11.6,26.7-32,48.6-57.6,62.1-10.7,1.9-22.3,1.7-34.6.2-4.8-.6-9.5-1.7-14.3-2.3.9,5.3,1.3,10.8,1.2,16.3-3.9.4-7.9.6-11.9.6s-5.4,0-8.1-.3Z"/>
</svg>