<?xml version="1.0" encoding="UTF-8"?>
<svg id="Layer_1" xmlns="http://www.w3.org/2000/svg" version="1.1" viewBox="0 0 820.3 626.1">
  <!-- Generator: Adobe Illustrator 29.4.0, SVG Export Plug-In . SVG Version: 2.1.0 Build 152)  -->
  <defs>
    <style>
      .st0 {
        fill: #fbfe13;
      }

      .st1 {
        fill: #511bbf;
      }

      .st2 {
        fill: #6c10af;
      }
    </style>
  </defs>
  <polygon class="st0" points="506.1 496.1 474.4 474.4 474.4 443.9 506.1 465.7 506.1 496.1"/>
  <polygon class="st2" points="506.1 496.1 474.4 518.2 442.8 496.1 474.4 474.4 506.1 496.1"/>
  <polygon class="st1" points="474.4 474.4 442.8 496.1 442.8 465.7 474.4 443.9 474.4 474.4"/>
  <polygon class="st2" points="474.4 548.6 442.8 570.5 411 548.6 442.8 526.8 474.4 548.6"/>
  <polygon class="st1" points="506.2 526.7 474.4 548.4 474.4 517.9 506.2 496.1 506.2 526.7"/>
  <polygon class="st0" points="474.4 444.3 442.8 422.7 442.8 392.1 474.4 413.8 474.4 444.3"/>
  <polygon class="st1" points="506.2 422.5 474.4 444.2 474.4 413.7 506.2 392 506.2 422.5"/>
  <polygon class="st2" points="338.7 503.3 370.4 481.2 402 503.3 370.4 525 338.7 503.3"/>
  <polygon class="st1" points="338.6 472.7 370.4 451.1 370.4 481.5 338.6 503.3 338.6 472.7"/>
  <polygon class="st0" points="370.4 555.1 402 576.8 402 607.3 370.4 585.6 370.4 555.1"/>
</svg>