<?xml version="1.0" encoding="UTF-8"?>
<svg id="Layer_1" xmlns="http://www.w3.org/2000/svg" version="1.1" viewBox="0 0 300 300">
  <!-- Generator: Adobe Illustrator 29.6.1, SVG Export Plug-In . SVG Version: 2.1.1 Build 9)  -->
  <defs>
    <style>
      .st0 {
        fill: #ff57b7;
      }
    </style>
  </defs>
  <path class="st0" d="M142.7,221.6c-29.4,0-57.8-9.4-83.9-28-30.1-21.4-46.5-47.4-47.1-48.5l-5.6-8.9,7-7.8C56.2,80.4,102.8,56.8,151.8,58c78.8,2,133.3,68.1,135.6,70.9,4.9,6,3.9,14.8-2.1,19.7-6,4.9-14.8,4-19.7-2h0c-.5-.6-48.9-59-114.7-60.6-37.6-.9-74.3,16.9-109.3,52.9,6.6,8.3,18.2,21.3,34.1,32.5,33.2,23.3,69.3,28.4,107.2,15.2,7.3-2.6,15.3,1.3,17.8,8.6,2.6,7.3-1.3,15.3-8.6,17.8-16.6,5.8-33.2,8.7-49.4,8.7Z"/>
  <circle class="st0" cx="150" cy="139.8" r="39"/>
</svg>