<?xml version="1.0" encoding="UTF-8"?>
<svg id="Layer_1" xmlns="http://www.w3.org/2000/svg" version="1.1" viewBox="0 0 300 300">
  <!-- Generator: Adobe Illustrator 29.5.1, SVG Export Plug-In . SVG Version: 2.1.0 Build 141)  -->
  <defs>
    <style>
      .st0 {
        fill: #00a99d;
      }
    </style>
  </defs>
  <g id="WDCIAf.tif">
    <path class="st0" d="M204.1,25.3c0,.1.5.2.6.4.9,1.6,1.5,3.4,1.9,5.2,6.5.2,13-.5,19.4.9,15.2,3.5,27.8,16.7,28.9,32.5v189.5c-1.6,17.8-16.8,31.4-34.2,33.1H79.4c-17.5-1.6-32.5-15.2-34.6-32.7V64c1.5-15.4,14-28.9,29.2-32.3s12.9-.6,19.4-.9c2.1-9.9,11.1-16.6,20.8-18.2h71.3c8.4,1.3,14.3,5.4,18.7,12.6ZM186.9,33.7c-1.5-2-2.9-2.6-5.4-2.8h-64c-3.6.5-5.4,2.5-5.7,6.1-.5,5.1-.5,11.9,6,12.2h64.4c6.5-.8,6.6-6.9,6.1-12.2s-.4-2.1-1.3-3.3ZM93.4,49.3c-10.5-.3-20.5-.9-26.6,9-2,3.2-2.8,5.9-3,9.8v182.2c.9,10.8,8.3,17.8,19.2,18.5h133.6c8.9-.6,16.5-5.3,18.7-14.3.9-63.6.9-127.4,0-191-3.3-13.4-16.6-15.2-28.5-14.3-2.8,9.8-11.9,17.7-22.3,18.3-22.7,1.5-47-1.1-69.9,0-9.8-1.4-19-8.3-21.1-18.2Z"/>
  </g>
</svg>